<svg width="63" height="65" viewBox="0 0 63 65" fill="none" xmlns="http://www.w3.org/2000/svg">
<path d="M49.3078 43.0028C46.3817 47.9702 41.3282 51.9318 35.7454 53.9043C30.164 55.8763 24.1688 55.8248 19.2969 52.955C14.425 50.0852 11.4736 44.8665 10.4925 39.0289C9.51118 33.1897 10.5261 26.8493 13.4522 21.8818C16.3784 16.9144 21.4318 12.9529 27.0146 10.9804C32.596 9.00835 38.5912 9.05982 43.4631 11.9296C48.3351 14.7995 51.2865 20.0181 52.2676 25.8558C53.2489 31.6949 52.2339 38.0353 49.3078 43.0028Z" stroke="#331B3B" stroke-opacity="0.64" stroke-width="2"/>
<g clip-path="url(#clip0_110_13)">
<path fill-rule="evenodd" clip-rule="evenodd" d="M41.2566 41.8071H37.5582V35.5079C37.5582 33.7808 36.9019 32.8156 35.5349 32.8156C34.0478 32.8156 33.2709 33.82 33.2709 35.5079V41.8071H29.7066V29.8071H33.2709V31.4235C33.2709 31.4235 34.3425 29.4405 36.889 29.4405C39.4343 29.4405 41.2566 30.9948 41.2566 34.2095V41.8071ZM25.4544 28.2358C24.2404 28.2358 23.2566 27.2443 23.2566 26.0215C23.2566 24.7986 24.2404 23.8071 25.4544 23.8071C26.6685 23.8071 27.6517 24.7986 27.6517 26.0215C27.6517 27.2443 26.6685 28.2358 25.4544 28.2358ZM23.614 41.8071H27.3306V29.8071H23.614V41.8071Z" fill="#331B3B"/>
</g>
<defs>
<clipPath id="clip0_110_13">
<rect width="18" height="18" fill="white" transform="translate(23.2566 23.8071)"/>
</clipPath>
</defs>
</svg>
